<!DOCTYPE svg PUBLIC "-//W3C//DTD SVG 20010904//EN" "http://www.w3.org/TR/2001/REC-SVG-20010904/DTD/svg10.dtd">
<svg version="1.0" xmlns="http://www.w3.org/2000/svg" width="50px" height="50px" viewBox="0 0 500 500" preserveAspectRatio="xMidYMid meet">
<g id="layer101" fill="#ffffff" stroke="none">
 <path d="M20 480 c-11 -11 -20 -30 -20 -42 0 -37 204 -421 229 -432 44 -19 62 4 169 211 56 110 102 210 102 222 0 11 -9 30 -20 41 -19 19 -33 20 -230 20 -197 0 -211 -1 -230 -20z m438 -41 c3 -19 -188 -391 -204 -396 -14 -5 -37 34 -139 234 -44 87 -75 159 -71 168 5 13 34 15 208 13 176 -3 203 -5 206 -19z"/>
 <path d="M231 416 c-20 -24 -9 -51 19 -51 21 0 25 5 25 30 0 34 -24 45 -44 21z"/>
 <path d="M230 245 c-14 -97 -10 -118 22 -113 21 3 23 8 21 68 -2 79 -11 130 -22 130 -5 0 -14 -38 -21 -85z"/>
 </g>

</svg>